<?xml version="1.0" encoding="UTF-8" standalone="no"?>
<svg
   xmlns:dc="http://purl.org/dc/elements/1.1/"
   xmlns:cc="http://creativecommons.org/ns#"
   xmlns:rdf="http://www.w3.org/1999/02/22-rdf-syntax-ns#"
   xmlns:svg="http://www.w3.org/2000/svg"
   xmlns="http://www.w3.org/2000/svg"
   xmlns:sodipodi="http://sodipodi.sourceforge.net/DTD/sodipodi-0.dtd"
   xmlns:inkscape="http://www.inkscape.org/namespaces/inkscape"
   width="1024"
   height="1024"
   viewBox="0 0 270.93333 270.93334"
   version="1.1"
   id="svg8"
   inkscape:version="1.0.1 (c497b03c, 2020-09-10)"
   sodipodi:docname="app-icon.svg"
   inkscape:export-filename="/Users/aniketnaik/Projects/Personal/stage-starter-inferno/src/www/branding/app-icon.png"
   inkscape:export-xdpi="802.47998"
   inkscape:export-ydpi="802.47998">
  <defs
     id="defs2" />
  <sodipodi:namedview
     id="base"
     pagecolor="#ffffff"
     bordercolor="#666666"
     borderopacity="1.0"
     inkscape:pageopacity="0.0"
     inkscape:pageshadow="2"
     inkscape:zoom="0.34825973"
     inkscape:cx="73.442564"
     inkscape:cy="605.89765"
     inkscape:document-units="mm"
     inkscape:current-layer="layer1"
     inkscape:document-rotation="0"
     showgrid="false"
     units="px"
     showguides="true"
     inkscape:window-width="1440"
     inkscape:window-height="806"
     inkscape:window-x="0"
     inkscape:window-y="23"
     inkscape:window-maximized="1" />
  <metadata
     id="metadata5">
    <rdf:RDF>
      <cc:Work
         rdf:about="">
        <dc:format>image/svg+xml</dc:format>
        <dc:type
           rdf:resource="http://purl.org/dc/dcmitype/StillImage" />
        <dc:title></dc:title>
      </cc:Work>
    </rdf:RDF>
  </metadata>
  <g
     inkscape:label="Layer 1"
     inkscape:groupmode="layer"
     id="layer1">
    <rect
       style="fill:#283a4c;stroke-width:0.463444;fill-opacity:1"
       id="rect114"
       width="270.93332"
       height="270.93332"
       x="1.110223e-16"
       y="0" />
  </g>
  <g
     inkscape:groupmode="layer"
     id="layer2"
     inkscape:label="fg">
    <g
       id="g102"
       transform="matrix(7.9375,0,0,7.7898185,40.216667,41.667239)">
    <path
   class="icon0"
   d="M 18.961,6.828 12,10.855 5.039,6.828 11.495,3.139 c 0.112,-0.064 0.232,-0.105 0.355,-0.124 0.218,-0.034 0.445,0.003 0.654,0.124 z m -7.435,16.133 c 0.141,0.076 0.303,0.119 0.474,0.119 0.173,0 0.336,-0.044 0.478,-0.121 0.356,-0.058 0.701,-0.18 1.017,-0.36 l 7.001,-4.001 c 0.618,-0.357 1.06,-0.897 1.299,-1.514 C 21.928,16.742 21.997,16.377 22,16 V 8 C 22,7.522 21.887,7.069 21.686,6.666 21.664,6.595 21.634,6.526 21.595,6.459 21.549,6.38 21.495,6.31 21.433,6.249 21.402,6.206 21.369,6.163 21.336,6.122 21.106,5.836 20.824,5.594 20.505,5.407 L 13.496,1.402 C 12.886,1.05 12.196,0.937 11.542,1.038 11.179,1.095 10.827,1.217 10.505,1.401 L 3.504,5.402 C 3.121,5.623 2.805,5.915 2.563,6.252 2.503,6.312 2.449,6.382 2.404,6.459 2.365,6.527 2.334,6.597 2.312,6.669 2.272,6.749 2.236,6.832 2.204,6.915 2.072,7.258 2.003,7.623 2,7.993 V 16 c 10e-4,0.71 0.248,1.363 0.664,1.878 0.23,0.286 0.512,0.528 0.831,0.715 l 7.009,4.005 c 0.324,0.187 0.67,0.307 1.022,0.362 z M 11,12.587 v 7.991 L 4.505,16.867 C 4.394,16.802 4.298,16.719 4.22,16.622 4.081,16.45 4,16.236 4,16 V 8.538 Z m 2,7.991 V 12.587 L 20,8.538 V 16 c -0.001,0.121 -0.025,0.246 -0.07,0.362 -0.08,0.206 -0.225,0.384 -0.426,0.5 z"
   id="path100"
   style="fill:#ff6292;fill-opacity:1" />

  </g>
  </g>
  <style
     type="text/css"
     id="style98">
    .icon0 {
      fill: #f04f8b;
    }
  </style>
</svg>
