<?xml version="1.0" encoding="UTF-8" standalone="no"?>
<!-- Created with Inkscape (http://www.inkscape.org/) -->

<svg
   xmlns:dc="http://purl.org/dc/elements/1.1/"
   xmlns:cc="http://creativecommons.org/ns#"
   xmlns:rdf="http://www.w3.org/1999/02/22-rdf-syntax-ns#"
   xmlns:svg="http://www.w3.org/2000/svg"
   xmlns="http://www.w3.org/2000/svg"
   xmlns:sodipodi="http://sodipodi.sourceforge.net/DTD/sodipodi-0.dtd"
   xmlns:inkscape="http://www.inkscape.org/namespaces/inkscape"
   version="1.1"
   id="svg2"
   width="1024"
   height="1024"
   viewBox="0 0 1024 1024"
   sodipodi:docname="web_hi_res_1024.svg"
   inkscape:export-filename="/home/naikus/Projects/stage-starter/src/res/web_hi_res_1025.png"
   inkscape:export-xdpi="96"
   inkscape:export-ydpi="96"
   inkscape:version="0.92.3 (2405546, 2018-03-11)">
  <metadata
     id="metadata8">
    <rdf:RDF>
      <cc:Work
         rdf:about="">
        <dc:format>image/svg+xml</dc:format>
        <dc:type
           rdf:resource="http://purl.org/dc/dcmitype/StillImage" />
        <dc:title></dc:title>
      </cc:Work>
    </rdf:RDF>
  </metadata>
  <defs
     id="defs6" />
  <sodipodi:namedview
     pagecolor="#ffffff"
     bordercolor="#666666"
     borderopacity="1"
     objecttolerance="10"
     gridtolerance="10"
     guidetolerance="10"
     inkscape:pageopacity="0"
     inkscape:pageshadow="2"
     inkscape:window-width="1280"
     inkscape:window-height="739"
     id="namedview4"
     showgrid="false"
     inkscape:zoom="0.23046875"
     inkscape:cx="915.19611"
     inkscape:cy="80.504127"
     inkscape:window-x="0"
     inkscape:window-y="33"
     inkscape:window-maximized="1"
     inkscape:current-layer="svg2" />
  <g
     id="g453">
    <path
       inkscape:connector-curvature="0"
       id="path411"
       d="M 474.71708,1022.9182 C 248.96169,1009.0602 45.246898,828.4599 8.4667729,604.55478 -29.952889,403.51718 64.974701,184.59263 240.5338,78.27652 415.32173,-33.959664 659.07063,-24.219262 822.03217,105.79579 984.36136,226.12629 1061.6527,448.03751 1006.1272,642.76165 960.34287,826.20084 804.2443,974.63142 619.09857,1012.2028 c -47.32516,10.2131 -96.06722,13.8283 -144.38149,10.7154 z"
       style="fill:#f8b554;stroke-width:2.17709064" />
    <path
       inkscape:connector-curvature="0"
       id="path399"
       d="M 466.72831,1017.2973 C 250.54275,1000.8402 57.021558,830.45795 15.26503,617.29169 -27.972651,422.23437 58.21689,206.80657 224.59852,95.898041 397.46469,-24.588749 645.78378,-22.702653 814.25689,105.28235 975.70255,222.90729 1054.7621,440.65911 1004.3516,634.27701 954.96508,839.65331 766.15658,1003.0464 554.57269,1016.7849 c -29.22093,2.2763 -58.59517,2.2404 -87.84438,0.5124 z M 604.97356,853.25394 C 698.40839,843.96593 792.17233,776.56155 802.33505,678.04275 816.77003,589.21267 770.24086,493.8453 687.54257,455.75305 647.46758,428.36717 573.60391,421.95753 548.9184,394.77048 c 57.94492,-30.2444 116.14317,29.91762 173.30466,21.45497 49.88882,-33.37637 61.19841,-101.9031 69.30128,-157.42231 2.63985,-72.39146 -87.96428,-74.09957 -139.11825,-88.295 -84.17709,-12.58263 -171.28702,-15.69331 -255.29737,-0.8667 -74.67652,16.24405 -142.35108,74.43529 -153.06965,152.74491 -19.99802,85.8357 12.41647,186.52546 93.6853,228.72538 50.90811,31.21064 109.43577,45.93929 163.27478,70.91152 -21.62798,37.96099 -88.91377,-1.07285 -124.4374,-6.29614 -50.86968,-28.03878 -132.96196,-44.05879 -142.37929,35.50545 -7.41203,54.72444 -43.45279,138.38402 27.71378,165.74252 107.93993,44.35547 228.42803,45.26854 343.07732,36.27886 z"
       style="fill:#44617d;stroke-width:2.17709064" />
  </g>
</svg>
